<svg xmlns="http://www.w3.org/2000/svg" viewBox="0 0 32 32">
  <defs>
    <linearGradient id="grad" x1="0%" y1="0%" x2="100%" y2="100%">
      <stop offset="0%" style="stop-color:#667eea"/>
      <stop offset="100%" style="stop-color:#764ba2"/>
    </linearGradient>
  </defs>
  <!-- Background circle -->
  <circle cx="16" cy="16" r="15" fill="url(#grad)"/>
  <!-- Lightbulb (AI idea) -->
  <path d="M16 6c-4 0-7 3-7 7 0 2.5 1.3 4.7 3.5 6v2.5c0 .8.7 1.5 1.5 1.5h4c.8 0 1.5-.7 1.5-1.5V19c2.2-1.3 3.5-3.5 3.5-6 0-4-3-7-7-7z" fill="white"/>
  <rect x="13" y="24" width="6" height="2" rx="1" fill="white"/>
  <!-- AI sparkles -->
  <circle cx="6" cy="8" r="1.5" fill="white" opacity="0.8"/>
  <circle cx="26" cy="8" r="1" fill="white" opacity="0.8"/>
  <circle cx="28" cy="20" r="1.5" fill="white" opacity="0.8"/>
  <circle cx="4" cy="22" r="1" fill="white" opacity="0.8"/>
</svg>
